<?xml version="1.0" encoding="utf-8"?>
<!-- Generator: Adobe Illustrator 23.0.1, SVG Export Plug-In . SVG Version: 6.00 Build 0)  -->
<svg version="1.1" id="Layer_1" xmlns="http://www.w3.org/2000/svg" xmlns:xlink="http://www.w3.org/1999/xlink" x="0px" y="0px"
	 viewBox="0 0 750 500" style="enable-background:new 0 0 750 500;" xml:space="preserve">
<style type="text/css">
	.st0{fill:#EBEBEB;}
	.st1{fill:#E0E0E0;}
	.st2{fill:#F5F5F5;}
	.st3{fill:#FAFAFA;}
	.st4{display:none;}
	.st5{display:inline;}
	.st6{opacity:0.4;}
	.st7{fill:#263238;}
	.st8{fill:#E8505B;}
	.st9{opacity:0.3;}
	.st10{fill:#DBD7D8;}
	.st11{fill:#C1BDBE;}
	.st12{fill:none;}
	.st13{fill:#FFFFFF;}
	.st14{fill:#455A64;}
	.st15{fill:#81CAEA;}
	.st16{fill:#F2F3F4;}
	.st17{fill:#EDF2F4;}
	.st18{fill:#6577A0;}
	.st19{opacity:0.5;}
	.st20{opacity:0.5;fill:#FFFFFF;enable-background:new    ;}
	.st21{fill:#FFBE9D;}
	.st22{fill:#EB996E;}
	.st23{fill:#5174E5;}
	.st24{opacity:0.2;}
	.st25{fill:none;stroke:#263238;stroke-width:0.75;stroke-miterlimit:10;}
</style>
<g id="Background_Complete">
	<g>
		<g>
			<g>
				<g>
					<path class="st0" d="M151.9,437.1c17.6-15.4,19.1-40.5,16-62.6c-0.5-3.7-0.6-7.6-2.7-10.7c-2.1-3.1-6.5-4.8-9.6-2.9
						c-2.6,1.6-3.5,4.9-4.7,7.7c-1.7,3.7-4.4,7-7.8,9.2c-2.2,1.5-5.1,2.6-7.5,1.5c-3.4-1.4-4.2-5.8-4.6-9.5
						c-0.7-6.9-1.4-13.7-2.1-20.6c-0.4-3.7-0.8-7.4-2.3-10.8c-1.5-3.4-4.4-6.3-8-6.9c-3.6-0.6-7.7,1.9-8.1,5.6
						c-0.1,1.5,0.3,3.1,0.4,4.6s-0.5,3.3-1.9,3.9c-1.4,0.6-3-0.3-4.2-1.2c-4.2-3.3-7.3-7.8-10.3-12.3c-2.9-4.5-5.8-9.1-9.7-12.8
						c-3.9-3.7-9-6.4-14.3-6.1c-5.3,0.3-10.6,4.2-11.3,9.5c-0.8,5.3,2.8,10.3,6.6,14.1c5.6,5.7,12,10.6,18.9,14.4
						c1.3,0.7,2.6,1.4,3.2,2.8c1.1,2.4-1,5.1-3.3,6.1c-2.6,1.2-5.7,1.3-8.5,1.9c-2.8,0.7-5.8,2.3-6.6,5.1c-1.1,3.9,2.5,7.5,5.9,9.8
						c6.8,4.5,14.3,7.8,22.2,9.7c2.8,0.7,5.8,1.2,8.2,2.9c2.4,1.7,4.1,4.8,3,7.6c-1,2.7-4.3,3.9-7.2,3.7c-2.9-0.2-5.6-1.5-8.4-2.2
						c-5.3-1.4-11.8-0.3-14.5,4.4c-1.8,3.1-1.6,7.1-0.1,10.4c1.5,3.3,4,6,6.6,8.5c9.2,8.6,20.4,15.1,32.6,17.9
						C129.7,442.8,140.7,442.7,151.9,437.1"/>
				</g>
			</g>
		</g>
		<g>
			<g>
				<g>
					<g>
						<path class="st1" d="M154,453.5c-1.8-8.7-4.8-18.9-9.4-29.7c-4.5-10.8-10.4-22.3-17-34.1c-1.7-2.9-3.3-5.8-4.9-8.7
							c-1.6-2.9-3.2-5.7-5-8.4c-3.5-5.4-7.2-10.2-10.9-14.8c-3.7-4.5-7.4-8.7-10.8-12.6c-3.5-3.9-6.8-7.4-9.9-10.5
							c-6.3-6.2-11.9-10.6-15.9-13.5c-2-1.4-3.6-2.5-4.7-3.2c-0.5-0.3-0.9-0.6-1.2-0.8c-0.3-0.2-0.4-0.3-0.4-0.3
							c0,0,0.1,0.1,0.4,0.3c0.3,0.2,0.7,0.5,1.2,0.9c1.1,0.7,2.6,1.8,4.6,3.3c3.9,2.9,9.5,7.4,15.7,13.6c3.1,3.1,6.4,6.7,9.8,10.5
							c3.4,3.9,7.1,8.1,10.8,12.6c3.7,4.5,7.4,9.4,10.8,14.7c1.7,2.7,3.3,5.5,4.9,8.3c1.6,2.9,3.3,5.8,4.9,8.7
							c6.6,11.8,12.5,23.2,17,34c4.5,10.8,7.6,20.9,9.5,29.5"/>
					</g>
				</g>
			</g>
		</g>
		<g>
			<g>
				<g>
					<g>
						<path class="st1" d="M117.5,372.7c0,0,0.1-0.6,0.2-1.6c0.1-1,0.1-2.5,0.2-4.4c0.1-3.7,0.1-8.9,0.1-14.5c0-5.7,0-10.8,0.2-14.5
							c0.1-1.9,0.2-3.4,0.2-4.4c0.1-1,0.1-1.6,0-1.6c0,0-0.1,0.6-0.3,1.6c-0.2,1-0.3,2.5-0.4,4.4c-0.3,3.7-0.4,8.9-0.4,14.5
							c0.1,5.6,0.1,10.7,0.1,14.5c0,1.7,0,3.2,0,4.4C117.5,372.2,117.5,372.7,117.5,372.7z"/>
					</g>
				</g>
			</g>
		</g>
		<g>
			<g>
				<g>
					<g>
						<path class="st1" d="M69.2,369.1c0,0,0.7,0.1,1.9,0c1.2,0,3-0.1,5.2-0.1c4.4,0,10.4,0.2,17.1,0.7c6.7,0.5,12.7,1.3,17,1.9
							c2.2,0.3,3.9,0.6,5.1,0.8c1.2,0.2,1.9,0.3,1.9,0.3c0,0-0.6-0.2-1.8-0.5c-1.2-0.3-2.9-0.7-5.1-1c-4.3-0.8-10.4-1.6-17.1-2.1
							c-6.7-0.5-12.8-0.6-17.2-0.5c-2.2,0-4,0.2-5.2,0.3C69.9,369,69.2,369.1,69.2,369.1z"/>
					</g>
				</g>
			</g>
		</g>
		<g>
			<g>
				<g>
					<g>
						<path class="st1" d="M143.9,423.1c0,0,0.1-0.2,0.3-0.6c0.2-0.5,0.4-1.1,0.6-1.8c0.5-1.6,1.2-3.9,2.1-6.7
							c1.7-5.7,3.8-13.6,5.9-22.3c2.2-8.8,4.2-16.7,5.8-22.4c0.8-2.8,1.4-5.1,1.9-6.7c0.2-0.7,0.4-1.3,0.5-1.8
							c0.1-0.4,0.2-0.6,0.1-0.7c0,0-0.1,0.2-0.3,0.6c-0.2,0.5-0.4,1.1-0.6,1.8c-0.5,1.6-1.2,3.9-2.1,6.7c-1.7,5.7-3.8,13.6-5.9,22.3
							c-2.2,8.8-4.2,16.7-5.7,22.4c-0.8,2.8-1.4,5.1-1.9,6.7c-0.2,0.7-0.4,1.3-0.5,1.8C144,422.8,143.9,423.1,143.9,423.1z"/>
					</g>
				</g>
			</g>
		</g>
		<g>
			<g>
				<g>
					<g>
						<path class="st1" d="M78.8,409.7c0,0,0.2,0.1,0.7,0.2c0.5,0.1,1.1,0.2,1.9,0.4c1.7,0.4,4.1,0.8,7,1.4c5.9,1.2,14,3,23,5
							c9,2,17.1,3.7,23,4.8c3,0.5,5.4,1,7,1.2c0.8,0.1,1.4,0.2,1.9,0.3c0.4,0.1,0.7,0.1,0.7,0.1s-0.2-0.1-0.7-0.2
							c-0.5-0.1-1.1-0.2-1.9-0.4c-1.7-0.4-4.1-0.8-7-1.4c-5.9-1.2-14-3-23-5c-9-2-17.1-3.7-23-4.8c-3-0.5-5.4-1-7-1.2
							c-0.8-0.1-1.4-0.2-1.9-0.3C79.1,409.7,78.8,409.7,78.8,409.7z"/>
					</g>
				</g>
			</g>
		</g>
	</g>
	<g>
		<rect x="153.4" y="193.8" class="st2" width="84.8" height="259.7"/>
		<rect x="237.9" y="193.8" class="st3" width="67" height="259.7"/>
		<g>
			<rect x="157.9" y="235.4" class="st1" width="71.9" height="20.2"/>
			<rect x="159.9" y="237.9" class="st2" width="4" height="15.5"/>
			<circle class="st3" cx="167.4" cy="241.2" r="1.3"/>
			<circle class="st3" cx="167.4" cy="246.7" r="1.3"/>
			<rect x="173.8" y="239.9" class="st2" width="4" height="11.9"/>
			<rect x="179.5" y="239.9" class="st2" width="4" height="11.9"/>
			<rect x="185.2" y="239.9" class="st2" width="4" height="11.9"/>
			<rect x="190.9" y="239.9" class="st2" width="4" height="11.9"/>
			<rect x="196.7" y="239.9" class="st2" width="4" height="11.9"/>
			<rect x="202.4" y="239.9" class="st2" width="4" height="11.9"/>
			<rect x="208.1" y="239.9" class="st2" width="4" height="11.9"/>
			<rect x="213.8" y="239.9" class="st2" width="4" height="11.9"/>
			<rect x="219.5" y="239.9" class="st2" width="4" height="11.9"/>
			<rect x="225.2" y="239.9" class="st2" width="4" height="11.9"/>
		</g>
		<g>
			<rect x="157.9" y="267.8" class="st1" width="71.9" height="20.2"/>
			<rect x="159.9" y="270.3" class="st2" width="4" height="15.5"/>
			<circle class="st3" cx="167.4" cy="273.6" r="1.3"/>
			<circle class="st3" cx="167.4" cy="279.1" r="1.3"/>
			<rect x="173.8" y="272.3" class="st2" width="4" height="11.9"/>
			<rect x="179.5" y="272.3" class="st2" width="4" height="11.9"/>
			<rect x="185.2" y="272.3" class="st2" width="4" height="11.9"/>
			<rect x="190.9" y="272.3" class="st2" width="4" height="11.9"/>
			<rect x="196.7" y="272.3" class="st2" width="4" height="11.9"/>
			<rect x="202.4" y="272.3" class="st2" width="4" height="11.9"/>
			<rect x="208.1" y="272.3" class="st2" width="4" height="11.9"/>
			<rect x="213.8" y="272.3" class="st2" width="4" height="11.9"/>
			<rect x="219.5" y="272.3" class="st2" width="4" height="11.9"/>
			<rect x="225.2" y="272.3" class="st2" width="4" height="11.9"/>
		</g>
		<g>
			<rect x="157.9" y="300.2" class="st1" width="71.9" height="20.2"/>
			<rect x="159.9" y="302.8" class="st2" width="4" height="15.5"/>
			<circle class="st3" cx="167.4" cy="306" r="1.3"/>
			<circle class="st3" cx="167.4" cy="311.5" r="1.3"/>
			<rect x="173.8" y="304.7" class="st2" width="4" height="11.9"/>
			<rect x="179.5" y="304.7" class="st2" width="4" height="11.9"/>
			<rect x="185.2" y="304.7" class="st2" width="4" height="11.9"/>
			<rect x="190.9" y="304.7" class="st2" width="4" height="11.9"/>
			<rect x="196.7" y="304.7" class="st2" width="4" height="11.9"/>
			<rect x="202.4" y="304.7" class="st2" width="4" height="11.9"/>
			<rect x="208.1" y="304.7" class="st2" width="4" height="11.9"/>
			<rect x="213.8" y="304.7" class="st2" width="4" height="11.9"/>
			<rect x="219.5" y="304.7" class="st2" width="4" height="11.9"/>
			<rect x="225.2" y="304.7" class="st2" width="4" height="11.9"/>
		</g>
		<g>
			<rect x="157.9" y="332.6" class="st1" width="71.9" height="20.2"/>
			<rect x="159.9" y="335.2" class="st2" width="4" height="15.5"/>
			<circle class="st3" cx="167.4" cy="338.4" r="1.3"/>
			<circle class="st3" cx="167.4" cy="343.9" r="1.3"/>
			<rect x="173.8" y="337.2" class="st2" width="4" height="11.9"/>
			<rect x="179.5" y="337.2" class="st2" width="4" height="11.9"/>
			<rect x="185.2" y="337.2" class="st2" width="4" height="11.9"/>
			<rect x="190.9" y="337.2" class="st2" width="4" height="11.9"/>
			<rect x="196.7" y="337.2" class="st2" width="4" height="11.9"/>
			<rect x="202.4" y="337.2" class="st2" width="4" height="11.9"/>
			<rect x="208.1" y="337.2" class="st2" width="4" height="11.9"/>
			<rect x="213.8" y="337.2" class="st2" width="4" height="11.9"/>
			<rect x="219.5" y="337.2" class="st2" width="4" height="11.9"/>
			<rect x="225.2" y="337.2" class="st2" width="4" height="11.9"/>
		</g>
		<g>
			<rect x="157.9" y="365.1" class="st1" width="71.9" height="20.2"/>
			<rect x="159.9" y="367.6" class="st2" width="4" height="15.5"/>
			<circle class="st3" cx="167.4" cy="370.9" r="1.3"/>
			<circle class="st3" cx="167.4" cy="376.3" r="1.3"/>
			<rect x="173.8" y="369.6" class="st2" width="4" height="11.9"/>
			<rect x="179.5" y="369.6" class="st2" width="4" height="11.9"/>
			<rect x="185.2" y="369.6" class="st2" width="4" height="11.9"/>
			<rect x="190.9" y="369.6" class="st2" width="4" height="11.9"/>
			<rect x="196.7" y="369.6" class="st2" width="4" height="11.9"/>
			<rect x="202.4" y="369.6" class="st2" width="4" height="11.9"/>
			<rect x="208.1" y="369.6" class="st2" width="4" height="11.9"/>
			<rect x="213.8" y="369.6" class="st2" width="4" height="11.9"/>
			<rect x="219.5" y="369.6" class="st2" width="4" height="11.9"/>
			<rect x="225.2" y="369.6" class="st2" width="4" height="11.9"/>
		</g>
		<g>
			<rect x="157.9" y="397.5" class="st1" width="71.9" height="20.2"/>
			<rect x="159.9" y="400" class="st2" width="4" height="15.5"/>
			<circle class="st3" cx="167.4" cy="403.3" r="1.3"/>
			<circle class="st3" cx="167.4" cy="408.8" r="1.3"/>
			<rect x="173.8" y="402" class="st2" width="4" height="11.9"/>
			<rect x="179.5" y="402" class="st2" width="4" height="11.9"/>
			<rect x="185.2" y="402" class="st2" width="4" height="11.9"/>
			<rect x="190.9" y="402" class="st2" width="4" height="11.9"/>
			<rect x="196.7" y="402" class="st2" width="4" height="11.9"/>
			<rect x="202.4" y="402" class="st2" width="4" height="11.9"/>
			<rect x="208.1" y="402" class="st2" width="4" height="11.9"/>
			<rect x="213.8" y="402" class="st2" width="4" height="11.9"/>
			<rect x="219.5" y="402" class="st2" width="4" height="11.9"/>
			<rect x="225.2" y="402" class="st2" width="4" height="11.9"/>
		</g>
		<g>
			<rect x="157.9" y="429.9" class="st1" width="71.9" height="20.2"/>
			<rect x="159.9" y="432.5" class="st2" width="4" height="15.5"/>
			<circle class="st3" cx="167.4" cy="435.7" r="1.3"/>
			<circle class="st3" cx="167.4" cy="441.2" r="1.3"/>
			<rect x="173.8" y="434.4" class="st2" width="4" height="11.9"/>
			<rect x="179.5" y="434.4" class="st2" width="4" height="11.9"/>
			<rect x="185.2" y="434.4" class="st2" width="4" height="11.9"/>
			<rect x="190.9" y="434.4" class="st2" width="4" height="11.9"/>
			<rect x="196.7" y="434.4" class="st2" width="4" height="11.9"/>
			<rect x="202.4" y="434.4" class="st2" width="4" height="11.9"/>
			<rect x="208.1" y="434.4" class="st2" width="4" height="11.9"/>
			<rect x="213.8" y="434.4" class="st2" width="4" height="11.9"/>
			<rect x="219.5" y="434.4" class="st2" width="4" height="11.9"/>
			<rect x="225.2" y="434.4" class="st2" width="4" height="11.9"/>
		</g>
		<g>
			<path class="st1" d="M202.4,235.4c0,0,0-0.2-0.1-0.6c0-0.4-0.1-1-0.1-1.8c0-0.8,0-1.7-0.1-2.8c-0.1-1.1-0.1-2.4-0.5-3.7
				c-0.4-1.3-1-2.7-1.9-4c-0.9-1.3-2.3-2.5-3.9-3.2c-1.7-0.7-3.6-1-5.6-1.1c-2-0.2-4.1-0.4-6.2-0.5c-8.5-0.7-16.2-1.2-21.8-1.3
				c-2.8-0.1-5,0-6.6,0c-0.7,0-1.3,0-1.8,0c-0.4,0-0.6,0-0.6,0c0,0,0.2,0,0.6-0.1c0.5,0,1.1-0.1,1.8-0.1c1.6-0.1,3.8-0.1,6.6-0.1
				c5.6,0,13.3,0.4,21.8,1.2c2.1,0.2,4.2,0.4,6.2,0.5c2,0.2,4,0.5,5.7,1.2c1.8,0.7,3.2,2,4.1,3.4c1,1.4,1.6,2.8,1.9,4.2
				c0.3,1.4,0.4,2.7,0.4,3.8c0,1.1,0,2.1,0,2.9c0,0.7,0,1.3,0,1.8C202.4,235.2,202.4,235.4,202.4,235.4z"/>
		</g>
		<g>
			<path class="st1" d="M180.6,235.4c0,0,0-0.2,0-0.6c0-0.4,0-1,0-1.7c0-0.7,0-1.6-0.1-2.7c-0.1-1-0.3-2.2-0.9-3.3
				c-0.6-1.1-1.9-1.9-3.2-2.5c-1.4-0.5-3.1-0.8-4.7-0.5c-0.8,0.1-1.7,0.4-2.4,0.8c-0.8,0.4-1.5,1-1.9,1.8c-0.4,0.8-0.4,1.7,0,2.5
				c0.4,0.8,1.2,1.4,2.1,1.6c0.9,0.2,1.8-0.1,2.5-0.7c0.7-0.6,1.1-1.5,1.1-2.4c0.1-0.9-0.2-1.7-0.7-2.4c-0.5-0.7-1.2-1.3-1.9-1.7
				c-0.7-0.4-1.5-0.5-2.4-0.6c-0.8-0.1-1.6-0.2-2.4-0.3c-1.5-0.2-3-0.3-4.3-0.3c-2.6-0.1-4.7-0.1-6.2-0.1c-0.7,0-1.2,0-1.7,0
				c-0.4,0-0.6,0-0.6,0s0.2,0,0.6-0.1c0.4,0,1-0.1,1.7-0.1c1.5-0.1,3.6-0.2,6.2-0.1c1.3,0,2.8,0.1,4.3,0.3c0.8,0.1,1.6,0.2,2.4,0.3
				c0.4,0.1,0.8,0.1,1.2,0.2c0.4,0.1,0.9,0.2,1.3,0.4c0.8,0.4,1.5,1,2.1,1.8c0.6,0.8,0.9,1.7,0.8,2.8c-0.1,1-0.5,2-1.3,2.7
				c-0.7,0.7-1.9,1.1-3,0.9c-1.1-0.2-2-0.9-2.5-1.9c-0.5-0.9-0.5-2.1,0-3c0.5-0.9,1.3-1.5,2.1-2c0.8-0.4,1.7-0.7,2.6-0.9
				c1.8-0.3,3.5,0,5,0.6c1.4,0.6,2.7,1.5,3.4,2.7c0.6,1.2,0.8,2.4,0.9,3.5c0.1,1.1,0,2,0,2.7c0,0.7-0.1,1.2-0.1,1.7
				C180.6,235.2,180.6,235.4,180.6,235.4z"/>
		</g>
		<g>
			<path class="st1" d="M208.2,235.4c0,0-0.1-0.2-0.2-0.7c-0.1-0.4-0.2-1.1-0.4-1.9c-0.4-1.7-0.9-4.1-2.1-6.9c-1.2-2.8-3-6-6.3-8.4
				c-1.6-1.2-3.6-1.9-5.7-2.2c-2.1-0.3-4.4-0.3-6.7-0.4c-9.3-0.2-17.7-0.1-23.8-0.4c-3-0.1-5.5-0.3-7.2-0.4c-0.8-0.1-1.5-0.1-2-0.2
				c-0.4,0-0.7-0.1-0.7-0.1c0,0,0.2,0,0.7,0c0.5,0,1.2,0,2,0.1c1.7,0.1,4.2,0.2,7.2,0.2c6.1,0.1,14.5,0.1,23.8,0.2
				c2.3,0.1,4.6,0.1,6.8,0.4c2.2,0.3,4.3,1,5.9,2.3c1.6,1.3,3,2.7,4,4.2c1,1.5,1.8,3,2.3,4.4c1.2,2.8,1.7,5.3,2,7
				c0.1,0.8,0.2,1.5,0.3,1.9C208.2,235.1,208.3,235.4,208.2,235.4z"/>
		</g>
		<rect x="158.9" y="197" class="st1" width="69.9" height="10.1"/>
		<rect x="174.3" y="202.1" class="st2" width="38.1" height="5.1"/>
	</g>
</g>
<g id="Background_Simple" class="st4">
	<g class="st5">
		<g class="st6">
			<path class="st0" d="M400,180.8c-47.2-3.8-88.7,40-136,36.7c-33-2.2-60.2-26.9-82.2-52.3s-42.7-53.9-72.6-68.4
				c-26.8-13-59.4-12.9-86.1,0.4c-1.6,0.8-3.1,1.6-4.6,2.5c-32,18.2-50.4,54.1-48.6,91.6c3.6,74,49.1,128.4,97.8,164.6
				c56.9,42.4,139.9,51.2,210.1,54.9c42.4,2.2,89-14.4,126.4-35.1s67-59.6,68.7-103.2C474.5,228.9,442.3,184.2,400,180.8z"/>
		</g>
	</g>
</g>
<g id="Floor">
	<g>
		<path class="st7" d="M696.7,453.6c0,0.1-144,0.3-321.7,0.3c-177.7,0-321.7-0.1-321.7-0.3c0-0.1,144-0.3,321.7-0.3
			C552.7,453.4,696.7,453.5,696.7,453.6z"/>
	</g>
</g>
<g id="Plants">
	<g>
		<g>
			<path class="st8" d="M148.8,426.1c-3.1-1.6-6.8-1.9-10.3-1.3c-1.9,0.3-3.8,0.8-5.1,2.2s-1.5,3.9-0.1,5.1c0.9,0.7,2.1,0.8,3.2,0.8
				c2.7,0,5.7-0.5,7.9,1.2c1.2,0.9,2,2.5,3.5,3c1.4,0.5,3.1-0.4,3.9-1.7c0.8-1.3,0.8-2.9,0.5-4.4C152.3,430.9,152,427.7,148.8,426.1
				z"/>
		</g>
		<g class="st9">
			<path d="M148.8,426.1c-3.1-1.6-6.8-1.9-10.3-1.3c-1.9,0.3-3.8,0.8-5.1,2.2s-1.5,3.9-0.1,5.1c0.9,0.7,2.1,0.8,3.2,0.8
				c2.7,0,5.7-0.5,7.9,1.2c1.2,0.9,2,2.5,3.5,3c1.4,0.5,3.1-0.4,3.9-1.7c0.8-1.3,0.8-2.9,0.5-4.4C152.3,430.9,152,427.7,148.8,426.1
				z"/>
		</g>
		<g>
			<path class="st8" d="M156.1,412.3c-1.9,2.7-5.6,1.8-7.4,0.1c-1.7-1.7-2.4-4.1-3.1-6.4c-1.5-5.3-3-10.8-1.8-16.2
				c0.3-1.6,1-3.2,2.1-4.4c1.1-1.2,2.9-1.9,4.5-1.4c1.9,0.5,3,2.4,3.9,4.1c2.4,5.1,3.7,10.8,3.7,16.5
				C157.9,407.3,157.6,410.1,156.1,412.3"/>
		</g>
		<g class="st9">
			<path class="st10" d="M156.1,412.3c-1.9,2.7-5.6,1.8-7.4,0.1c-1.7-1.7-2.4-4.1-3.1-6.4c-1.5-5.3-3-10.8-1.8-16.2
				c0.3-1.6,1-3.2,2.1-4.4c1.1-1.2,2.9-1.9,4.5-1.4c1.9,0.5,3,2.4,3.9,4.1c2.4,5.1,3.7,10.8,3.7,16.5
				C157.9,407.3,157.6,410.1,156.1,412.3"/>
		</g>
		<g>
			<path class="st11" d="M161.3,416.2c-2.1-2.5-2.4-6.1-1.5-9.2c0.9-3.1,3.1-5.7,5.5-7.8c2.8-2.5,6.2-4.4,9.7-5.7
				c1.4-0.5,2.9-0.9,4.4-0.7c1.5,0.2,3,0.9,3.6,2.2c1,2,0,4.3-1.1,6.2c-1.9,3.4-4,6.6-6.4,9.7c-1.9,2.4-4.1,4.9-7,6
				s-5.9,0.9-7.5-1.1"/>
		</g>
		<g>
			<g>
				<path class="st7" d="M155.9,453.5c0,0-0.1-0.4-0.2-1.2c-0.1-0.9-0.2-2-0.3-3.4c-0.1-1.4-0.3-3.1-0.7-5c-0.4-1.8-1-3.8-1.8-5.9
					c-0.8-2-1.8-3.9-3-5.3c-1.2-1.5-2.5-2.6-3.8-3.2c-1.3-0.6-2.4-0.9-3.2-1c-0.8-0.1-1.2-0.2-1.2-0.2c0,0,0.4,0,1.3,0
					c0.8,0.1,2,0.3,3.3,0.9c1.3,0.6,2.8,1.7,4,3.2c1.2,1.5,2.2,3.4,3.1,5.4c0.8,2.1,1.4,4.1,1.8,6c0.4,1.9,0.5,3.6,0.6,5
					c0.1,1.4,0.1,2.6,0.1,3.4C156,453,156,453.5,155.9,453.5z"/>
			</g>
		</g>
		<g>
			<g>
				<path class="st7" d="M155.7,450.9c0,0,0-0.2,0-0.6c0-0.4,0-1,0-1.6c0-1.4,0-3.5,0-6.1c-0.1-5.1-0.5-12.2-1.3-19.9
					c-0.8-7.8-1.9-14.7-2.9-19.7c-0.2-1.3-0.5-2.4-0.7-3.4c-0.2-1-0.4-1.8-0.6-2.5c-0.2-0.7-0.3-1.2-0.4-1.6
					c-0.1-0.4-0.1-0.6-0.1-0.6c0,0,0.1,0.2,0.2,0.5c0.1,0.4,0.3,0.9,0.5,1.6c0.2,0.7,0.4,1.5,0.7,2.5c0.3,1,0.5,2.1,0.8,3.4
					c1.1,5,2.2,12,3,19.8c0.8,7.8,1.1,14.8,1.1,20c0,2.6-0.1,4.6-0.1,6.1c0,0.7-0.1,1.2-0.1,1.6
					C155.8,450.7,155.7,450.9,155.7,450.9z"/>
			</g>
		</g>
		<g>
			<g>
				<path class="st7" d="M155.8,437.2c0,0,0-0.6,0-1.7c0.1-1.1,0.2-2.7,0.6-4.7c0.3-2,0.8-4.3,1.6-6.8c0.7-2.5,1.7-5.2,2.9-8
					c2.4-5.6,5.6-10.1,8.4-12.9c0.7-0.7,1.4-1.3,2-1.8c0.3-0.3,0.6-0.5,0.8-0.7c0.3-0.2,0.5-0.4,0.8-0.5c0.9-0.6,1.4-0.9,1.5-0.9
					c0.1,0.1-2.1,1.4-4.8,4.2c-2.7,2.8-5.8,7.4-8.2,12.9c-1.2,2.7-2.2,5.4-2.9,7.9c-0.8,2.5-1.3,4.8-1.7,6.7
					c-0.4,1.9-0.6,3.5-0.7,4.6C155.9,436.6,155.8,437.2,155.8,437.2z"/>
			</g>
		</g>
	</g>
	<rect x="364.7" y="137.4" class="st12" width="87" height="27"/>
	<g>
		<path class="st13" d="M471.9,227c-2.3-0.3-5-2.3-6-4.7c5,0,15,17,5.7,19.3c-3,1-7-2.7-6.3-6c1-4.7,18-12.3,13.7-17.3
			c0.7,3.7,2.3,6.3,4.3,9.3"/>
		<g>
			<path class="st13" d="M472.1,226.8c-2.3-0.6-3.8-1.7-5.3-3.5c-0.3-0.3,2,0.9,2.4,1.3c1.7,1.6,3,3.7,4,5.8c1,2,1.7,4.3,1.7,6.6
				c0,6.6-12.8,3.4-8.7-2.8c2.3-3.5,16.9-10.5,12.9-16c-0.1-0.2-0.8,0-0.7,0.2c0.8,3.5,2.4,6.4,4.4,9.4c0.1,0.2,0.9,0,0.7-0.3
				c-1.6-2.5-3.1-4.9-4-7.8c-0.4-1.3-0.5,1.1-0.5,1.3c-0.2,1-1.2,2.1-1.9,2.9c-2.3,2.6-5.4,4.6-8.1,6.8c-1.6,1.3-3.6,2.9-4.3,5
				c-0.8,2.5,2,5.9,4.5,6.2c11.8,1.5,4.7-19-3.3-19.8c-0.2,0-0.6,0.1-0.5,0.4c1.4,2.5,3.3,4,6.1,4.7
				C472,227.3,472.5,226.9,472.1,226.8L472.1,226.8z"/>
		</g>
	</g>
</g>
<g id="Server">
	<g>
		<path class="st7" d="M319.9,155.8c-0.1,0-0.3-11-0.3-24.6c0-13.6,0.1-24.6,0.3-24.6c0.1,0,0.3,11,0.3,24.6
			C320.2,144.7,320,155.8,319.9,155.8z"/>
	</g>
	<g>
		<g>
			<polygon class="st7" points="584.3,369.5 563,369.5 563,334.4 584.3,334.3 			"/>
		</g>
		<rect x="422.5" y="334.1" class="st14" width="141.5" height="35.1"/>
		<rect x="428.8" y="341.3" class="st7" width="27.9" height="4.3"/>
		<rect x="428.8" y="348.7" class="st7" width="27.9" height="4.3"/>
		<rect x="428.8" y="356.3" class="st7" width="27.9" height="4.3"/>
		<g>
			<g>
				<circle class="st7" cx="466.1" cy="343.9" r="1.6"/>
				<circle class="st7" cx="473.2" cy="343.9" r="1.6"/>
				<circle class="st7" cx="480.2" cy="343.9" r="1.6"/>
				<circle class="st7" cx="487.3" cy="343.9" r="1.6"/>
				<circle class="st7" cx="541.9" cy="343.9" r="1.6"/>
				<circle class="st7" cx="549.1" cy="343.9" r="1.6"/>
				<circle class="st7" cx="494.3" cy="343.9" r="1.6"/>
				<circle class="st7" cx="529" cy="343.9" r="1.6"/>
				<circle class="st2" cx="501.4" cy="343.9" r="1.6"/>
				<circle class="st2" cx="508.4" cy="343.9" r="1.6"/>
				<circle class="st2" cx="522.7" cy="343.9" r="1.6"/>
				<circle class="st2" cx="555" cy="343.9" r="1.6"/>
				<circle class="st8" cx="515.5" cy="343.9" r="1.6"/>
				<circle class="st8" cx="535.7" cy="343.9" r="1.6"/>
			</g>
			<g>
				<circle class="st7" cx="555" cy="351.6" r="1.6"/>
				<circle class="st7" cx="547.9" cy="351.6" r="1.6"/>
				<circle class="st7" cx="540.9" cy="351.6" r="1.6"/>
				<circle class="st7" cx="533.8" cy="351.6" r="1.6"/>
				<circle class="st7" cx="479.2" cy="351.6" r="1.6"/>
				<circle class="st7" cx="472" cy="351.6" r="1.6"/>
				<circle class="st7" cx="526.8" cy="351.6" r="1.6"/>
				<circle class="st7" cx="492.1" cy="351.6" r="1.6"/>
				<circle class="st2" cx="519.7" cy="351.6" r="1.6"/>
				<circle class="st2" cx="512.7" cy="351.6" r="1.6"/>
				<circle class="st2" cx="498.3" cy="351.6" r="1.6"/>
				<circle class="st2" cx="466.1" cy="351.6" r="1.6"/>
				<circle class="st8" cx="505.6" cy="351.6" r="1.6"/>
				<circle class="st8" cx="485.4" cy="351.6" r="1.6"/>
			</g>
			<g>
				<circle class="st7" cx="466.1" cy="358.5" r="1.6"/>
				<circle class="st7" cx="473.2" cy="358.5" r="1.6"/>
				<circle class="st7" cx="480.2" cy="358.5" r="1.6"/>
				<circle class="st7" cx="487.3" cy="358.5" r="1.6"/>
				<circle class="st7" cx="541.9" cy="358.5" r="1.6"/>
				<circle class="st7" cx="549.1" cy="358.5" r="1.6"/>
				<circle class="st7" cx="494.3" cy="358.5" r="1.6"/>
				<circle class="st7" cx="529" cy="358.5" r="1.6"/>
				<circle class="st2" cx="501.4" cy="358.5" r="1.6"/>
				<circle class="st2" cx="508.4" cy="358.5" r="1.6"/>
				<circle class="st2" cx="522.7" cy="358.5" r="1.6"/>
				<circle class="st2" cx="555" cy="358.5" r="1.6"/>
				<circle class="st8" cx="515.5" cy="358.5" r="1.6"/>
				<circle class="st8" cx="535.7" cy="358.5" r="1.6"/>
			</g>
		</g>
	</g>
	<g>
		<path class="st7" d="M347.8,86.2c0,0,0.4,0,1.1,0c0.7,0,1.8,0,3.2,0c2.9,0,7.1,0,12.5-0.1c10.9,0,26.6-0.1,45.9-0.1
			c38.8,0,92.4-0.1,151.6-0.1c3.7,0,7.5,0.5,10.9,1.7c3.5,1.2,6.8,3,9.6,5.3c5.7,4.6,9.5,11.1,10.9,18c0.7,3.5,0.6,7,0.6,10.4
			c0,3.4,0,6.8,0,10.2c0,6.7,0,13.3,0,19.7c0,25.6,0,48.7-0.1,68.2c0,4.8,0,9.5,0,13.8c0,2.2,0,4.3,0,6.4c0,2.1-0.3,4.1-1.2,5.9
			c-1.6,3.6-4.9,5.9-8.1,6.7c-1.6,0.4-3.2,0.4-4.7,0.4c-1.5,0-2.9,0-4.3,0c-5.4,0-9.6,0-12.5-0.1c-1.4,0-2.5,0-3.2,0
			c-0.7,0-1.1,0-1.1,0s0.4,0,1.1,0c0.7,0,1.8,0,3.2,0c2.9,0,7.1,0,12.5-0.1c1.4,0,2.8,0,4.3,0c1.5,0,3.1,0,4.7-0.4
			c3.2-0.8,6.3-3.1,7.9-6.5c0.8-1.7,1.2-3.7,1.1-5.7c0-2.1,0-4.2,0-6.4c0-4.4,0-9,0-13.8c0-19.4,0-42.5-0.1-68.2c0-6.4,0-13,0-19.7
			c0-3.4,0-6.8,0-10.2c0-3.4,0.1-6.9-0.6-10.3c-1.4-6.8-5.2-13.2-10.7-17.7c-2.8-2.3-6-4-9.4-5.2c-3.4-1.2-7.1-1.6-10.8-1.6
			c-59.2,0-112.8-0.1-151.6-0.1c-19.4,0-35.1-0.1-45.9-0.1c-5.4,0-9.6,0-12.5-0.1c-1.4,0-2.5,0-3.2,0
			C348.1,86.2,347.8,86.2,347.8,86.2z"/>
	</g>
	<g>
		<g>
			<rect x="264.3" y="157.1" class="st0" width="96.6" height="296"/>
			<g>
				<rect x="269.6" y="204.5" class="st7" width="82" height="23.1"/>
				<rect x="271.9" y="207.4" class="st14" width="4.6" height="17.7"/>
				<circle class="st13" cx="280.4" cy="211.1" r="1.5"/>
				<circle class="st13" cx="280.4" cy="217.4" r="1.5"/>
				<rect x="287.7" y="209.7" class="st14" width="4.5" height="13.6"/>
				<rect x="294.2" y="209.7" class="st14" width="4.5" height="13.6"/>
				<rect x="300.7" y="209.7" class="st14" width="4.5" height="13.6"/>
				<rect x="307.3" y="209.7" class="st14" width="4.5" height="13.6"/>
				<rect x="313.8" y="209.7" class="st14" width="4.5" height="13.6"/>
				<rect x="320.3" y="209.7" class="st14" width="4.5" height="13.6"/>
				<rect x="326.8" y="209.7" class="st14" width="4.5" height="13.6"/>
				<rect x="333.3" y="209.7" class="st14" width="4.5" height="13.6"/>
				<rect x="339.8" y="209.7" class="st14" width="4.5" height="13.6"/>
				<rect x="346.3" y="209.7" class="st14" width="4.5" height="13.6"/>
			</g>
			<g>
				<rect x="269.6" y="237.7" class="st7" width="82" height="23.1"/>
				<rect x="271.9" y="240.6" class="st14" width="4.6" height="17.7"/>
				<circle class="st13" cx="280.4" cy="244.3" r="1.5"/>
				<circle class="st13" cx="280.4" cy="250.5" r="1.5"/>
				<rect x="287.7" y="242.8" class="st14" width="4.5" height="13.6"/>
				<rect x="294.2" y="242.8" class="st14" width="4.5" height="13.6"/>
				<rect x="300.7" y="242.8" class="st14" width="4.5" height="13.6"/>
				<rect x="307.3" y="242.8" class="st14" width="4.5" height="13.6"/>
				<rect x="313.8" y="242.8" class="st14" width="4.5" height="13.6"/>
				<rect x="320.3" y="242.8" class="st14" width="4.5" height="13.6"/>
				<rect x="326.8" y="242.8" class="st14" width="4.5" height="13.6"/>
				<rect x="333.3" y="242.8" class="st14" width="4.5" height="13.6"/>
				<rect x="339.8" y="242.8" class="st14" width="4.5" height="13.6"/>
				<rect x="346.3" y="242.8" class="st14" width="4.5" height="13.6"/>
			</g>
			<g>
				<rect x="269.6" y="271.1" class="st7" width="82" height="23.1"/>
				<rect x="271.9" y="274" class="st14" width="4.6" height="17.7"/>
				<circle class="st13" cx="280.4" cy="277.7" r="1.5"/>
				<circle class="st13" cx="280.4" cy="283.9" r="1.5"/>
				<rect x="287.7" y="276.2" class="st14" width="4.5" height="13.6"/>
				<rect x="294.2" y="276.2" class="st14" width="4.5" height="13.6"/>
				<rect x="300.7" y="276.2" class="st14" width="4.5" height="13.6"/>
				<rect x="307.3" y="276.2" class="st14" width="4.5" height="13.6"/>
				<rect x="313.8" y="276.2" class="st14" width="4.5" height="13.6"/>
				<rect x="320.3" y="276.2" class="st14" width="4.5" height="13.6"/>
				<rect x="326.8" y="276.2" class="st14" width="4.5" height="13.6"/>
				<rect x="333.3" y="276.2" class="st14" width="4.5" height="13.6"/>
				<rect x="339.8" y="276.2" class="st14" width="4.5" height="13.6"/>
				<rect x="346.3" y="276.2" class="st14" width="4.5" height="13.6"/>
			</g>
			<g>
				<rect x="269.6" y="307.2" class="st7" width="82" height="23.1"/>
				<rect x="271.9" y="310.1" class="st14" width="4.6" height="17.7"/>
				<circle class="st13" cx="280.4" cy="313.8" r="1.5"/>
				<circle class="st13" cx="280.4" cy="320" r="1.5"/>
				<rect x="287.7" y="312.3" class="st14" width="4.5" height="13.6"/>
				<rect x="294.2" y="312.3" class="st14" width="4.5" height="13.6"/>
				<rect x="300.7" y="312.3" class="st14" width="4.5" height="13.6"/>
				<rect x="307.3" y="312.3" class="st14" width="4.5" height="13.6"/>
				<rect x="313.8" y="312.3" class="st14" width="4.5" height="13.6"/>
				<rect x="320.3" y="312.3" class="st14" width="4.5" height="13.6"/>
				<rect x="326.8" y="312.3" class="st14" width="4.5" height="13.6"/>
				<rect x="333.3" y="312.3" class="st14" width="4.5" height="13.6"/>
				<rect x="339.8" y="312.3" class="st14" width="4.5" height="13.6"/>
				<rect x="346.3" y="312.3" class="st14" width="4.5" height="13.6"/>
			</g>
			<g>
				<rect x="269.6" y="343.6" class="st7" width="82" height="23.1"/>
				<rect x="271.9" y="346.5" class="st14" width="4.6" height="17.7"/>
				<circle class="st13" cx="280.4" cy="350.2" r="1.5"/>
				<circle class="st13" cx="280.4" cy="356.5" r="1.5"/>
				<rect x="287.7" y="348.8" class="st14" width="4.5" height="13.6"/>
				<rect x="294.2" y="348.8" class="st14" width="4.5" height="13.6"/>
				<rect x="300.7" y="348.8" class="st14" width="4.5" height="13.6"/>
				<rect x="307.3" y="348.8" class="st14" width="4.5" height="13.6"/>
				<rect x="313.8" y="348.8" class="st14" width="4.5" height="13.6"/>
				<rect x="320.3" y="348.8" class="st14" width="4.5" height="13.6"/>
				<rect x="326.8" y="348.8" class="st14" width="4.5" height="13.6"/>
				<rect x="333.3" y="348.8" class="st14" width="4.5" height="13.6"/>
				<rect x="339.8" y="348.8" class="st14" width="4.5" height="13.6"/>
				<rect x="346.3" y="348.8" class="st14" width="4.5" height="13.6"/>
			</g>
			<g>
				<rect x="269.6" y="416.1" class="st7" width="82" height="23.1"/>
				<rect x="271.9" y="419" class="st14" width="4.6" height="17.7"/>
				<circle class="st13" cx="280.4" cy="422.8" r="1.5"/>
				<circle class="st13" cx="280.4" cy="429" r="1.5"/>
				<rect x="287.7" y="421.3" class="st14" width="4.5" height="13.6"/>
				<rect x="294.2" y="421.3" class="st14" width="4.5" height="13.6"/>
				<rect x="300.7" y="421.3" class="st14" width="4.5" height="13.6"/>
				<rect x="307.3" y="421.3" class="st14" width="4.5" height="13.6"/>
				<rect x="313.8" y="421.3" class="st14" width="4.5" height="13.6"/>
				<rect x="320.3" y="421.3" class="st14" width="4.5" height="13.6"/>
				<rect x="326.8" y="421.3" class="st14" width="4.5" height="13.6"/>
				<rect x="333.3" y="421.3" class="st14" width="4.5" height="13.6"/>
				<rect x="339.8" y="421.3" class="st14" width="4.5" height="13.6"/>
				<rect x="346.3" y="421.3" class="st14" width="4.5" height="13.6"/>
			</g>
			<g>
				<rect x="269.6" y="379.9" class="st7" width="82" height="23.1"/>
				<rect x="271.9" y="382.8" class="st14" width="4.6" height="17.7"/>
				<circle class="st13" cx="280.4" cy="386.5" r="1.5"/>
				<circle class="st13" cx="280.4" cy="392.8" r="1.5"/>
				<rect x="287.7" y="385.1" class="st14" width="4.5" height="13.6"/>
				<rect x="294.2" y="385.1" class="st14" width="4.5" height="13.6"/>
				<rect x="300.7" y="385.1" class="st14" width="4.5" height="13.6"/>
				<rect x="307.3" y="385.1" class="st14" width="4.5" height="13.6"/>
				<rect x="313.8" y="385.1" class="st14" width="4.5" height="13.6"/>
				<rect x="320.3" y="385.1" class="st14" width="4.5" height="13.6"/>
				<rect x="326.8" y="385.1" class="st14" width="4.5" height="13.6"/>
				<rect x="333.3" y="385.1" class="st14" width="4.5" height="13.6"/>
				<rect x="339.8" y="385.1" class="st14" width="4.5" height="13.6"/>
				<rect x="346.3" y="385.1" class="st14" width="4.5" height="13.6"/>
			</g>
			<g>
				<path class="st7" d="M320.3,204.5c0,0,0-0.2-0.1-0.7c0-0.5-0.1-1.2-0.1-2.1c0-0.9,0-2-0.1-3.2c-0.1-1.3-0.2-2.7-0.6-4.2
					c-0.4-1.5-1.1-3.1-2.2-4.6c-1.1-1.5-2.6-2.8-4.5-3.6c-1.9-0.8-4.1-1.1-6.4-1.3c-2.3-0.2-4.6-0.4-7.1-0.6
					c-9.7-0.8-18.4-1.4-24.8-1.5c-3.2-0.1-5.8,0-7.5,0c-0.8,0-1.5,0-2,0c-0.5,0-0.7,0-0.7,0s0.2,0,0.7-0.1c0.5,0,1.2-0.1,2-0.1
					c1.8-0.1,4.4-0.1,7.5-0.1c6.4,0,15.2,0.5,24.8,1.3c2.4,0.2,4.8,0.4,7.1,0.6c2.3,0.2,4.5,0.5,6.5,1.4c2,0.8,3.6,2.2,4.7,3.8
					c1.1,1.6,1.8,3.2,2.2,4.8c0.4,1.6,0.4,3,0.5,4.3c0,1.3,0,2.4,0,3.2c0,0.8,0,1.5,0,2C320.3,204.3,320.3,204.5,320.3,204.5z"/>
			</g>
			<g>
				<path class="st7" d="M295.4,204.5c0,0,0-0.2,0-0.7c0-0.5,0-1.1,0-1.9c0-0.8,0-1.9-0.1-3c-0.1-1.2-0.3-2.5-1-3.8
					c-0.7-1.3-2.1-2.2-3.7-2.9c-1.6-0.6-3.5-0.9-5.4-0.6c-0.9,0.2-1.9,0.5-2.8,0.9c-0.9,0.5-1.7,1.2-2.2,2.1c-0.5,0.9-0.5,2,0,2.9
					c0.5,0.9,1.4,1.6,2.5,1.8c1,0.3,2.1-0.1,2.9-0.8c0.8-0.7,1.2-1.7,1.3-2.7c0.1-1-0.3-2-0.9-2.8c-0.6-0.8-1.3-1.5-2.2-1.9
					c-0.8-0.5-1.8-0.5-2.7-0.7c-0.9-0.1-1.8-0.3-2.7-0.4c-1.7-0.2-3.4-0.3-4.9-0.4c-3-0.1-5.4-0.1-7.1-0.1c-0.8,0-1.4,0-1.9,0
					c-0.4,0-0.7,0-0.7,0c0,0,0.2,0,0.7-0.1c0.5,0,1.1-0.1,1.9-0.1c1.7-0.1,4.1-0.2,7.1-0.1c1.5,0,3.1,0.1,4.9,0.3
					c0.9,0.1,1.8,0.2,2.7,0.3c0.5,0.1,0.9,0.1,1.4,0.2c0.5,0.1,1,0.3,1.4,0.5c0.9,0.5,1.7,1.2,2.4,2.1c0.6,0.9,1.1,2,1,3.1
					c-0.1,1.1-0.6,2.3-1.4,3.1c-0.8,0.8-2.1,1.3-3.3,1c-1.2-0.3-2.2-1.1-2.8-2.1c-0.6-1-0.6-2.4,0-3.4c0.5-1,1.4-1.7,2.4-2.2
					c0.9-0.5,1.9-0.8,2.9-1c2-0.3,4-0.1,5.6,0.6c1.6,0.7,3.1,1.7,3.9,3.1c0.7,1.4,0.9,2.8,1,4c0.1,1.2,0,2.2,0,3.1
					c0,0.8-0.1,1.4-0.1,1.9C295.5,204.3,295.4,204.5,295.4,204.5z"/>
			</g>
			<g>
				<path class="st7" d="M327,204.5c0,0-0.1-0.3-0.2-0.8c-0.1-0.5-0.2-1.2-0.4-2.2c-0.4-1.9-1.1-4.6-2.4-7.8
					c-1.3-3.2-3.5-6.8-7.1-9.6c-1.8-1.4-4.1-2.2-6.5-2.5c-2.4-0.4-5-0.3-7.7-0.4c-10.6-0.2-20.2-0.2-27.1-0.4
					c-3.5-0.1-6.3-0.3-8.2-0.4c-0.9-0.1-1.7-0.1-2.2-0.2c-0.5,0-0.8-0.1-0.8-0.1c0,0,0.3,0,0.8,0c0.6,0,1.3,0.1,2.2,0.1
					c1.9,0.1,4.7,0.2,8.2,0.3c6.9,0.2,16.5,0.1,27.1,0.3c2.6,0.1,5.2,0.1,7.7,0.4c2.5,0.3,4.9,1.1,6.8,2.6c1.8,1.4,3.4,3.1,4.5,4.8
					c1.2,1.7,2,3.4,2.7,5c1.3,3.2,1.9,6,2.3,7.9c0.2,1,0.3,1.7,0.3,2.2C327,204.2,327,204.5,327,204.5z"/>
			</g>
			<rect x="270.7" y="160.8" class="st7" width="79.7" height="11.6"/>
			<rect x="288.3" y="166.6" class="st14" width="43.4" height="5.8"/>
			<g>
				<g>
					<path class="st7" d="M382.9,400.8c0,0.1-0.9,0.1-2.4,0.6c-1.5,0.5-3.7,1.3-6,3c-1.2,0.8-2.3,1.8-3.4,3.1
						c-0.5,0.6-1,1.4-1.4,2.1c-0.4,0.8-0.6,1.7-0.9,2.6c-0.9,3.7-0.6,7.8-0.5,12.2c0.2,4.4-0.1,8.7-1.8,12.2c-0.8,1.7-2,3.2-3.3,4.4
						c-1.3,1.1-2.7,1.9-4,2.5c-1.3,0.6-2.6,0.9-3.7,1.1c-1.1,0.2-2.1,0.2-2.9,0.1c-0.8-0.1-1.4-0.2-1.8-0.3
						c-0.4-0.1-0.6-0.2-0.6-0.2c0-0.1,0.9,0.2,2.5,0.3c0.8,0,1.8,0,2.9-0.2c1.1-0.2,2.3-0.6,3.6-1.2c1.3-0.6,2.6-1.4,3.9-2.5
						c1.2-1.1,2.3-2.5,3.1-4.2c1.6-3.4,1.9-7.6,1.7-12c-0.2-4.3-0.5-8.6,0.5-12.3c0.2-0.9,0.5-1.8,0.9-2.7c0.4-0.8,0.9-1.6,1.5-2.2
						c1.1-1.3,2.3-2.4,3.5-3.2c2.4-1.6,4.6-2.4,6.2-2.8c0.8-0.2,1.4-0.3,1.8-0.3C382.7,400.8,382.9,400.8,382.9,400.8z"/>
				</g>
				<rect x="346.2" y="440.6" class="st7" width="6.5" height="8"/>
				<g>
					<rect x="382.9" y="380.7" class="st14" width="36.7" height="40.2"/>
					<circle class="st7" cx="401.3" cy="400.9" r="12.1"/>
					<circle class="st14" cx="401.3" cy="400.9" r="6"/>
					<circle class="st7" cx="387.9" cy="386.9" r="1.1"/>
					<circle class="st7" cx="414" cy="386.9" r="1.1"/>
					<circle class="st7" cx="414.3" cy="416.6" r="1.1"/>
					<circle class="st7" cx="387.9" cy="417.1" r="1.1"/>
					<rect x="419.6" y="380.7" class="st7" width="3" height="40.2"/>
				</g>
			</g>
		</g>
	</g>
	<g>
		<path class="st15" d="M365.5,112.6c3.3-7.7,1.3-15.7-4.1-22c-5.4-6.4-14.5-9.3-22.6-7.3c-1.4-8.1-7.1-15.3-14.5-18.6
			c-7.5-3.4-16.6-2.8-23.6,1.5s-11.6,12.2-12,20.3c-5.5,0.9-10.6,4.5-13.4,9.4c-2.8,4.9-3.2,11.1-1.1,16.3L365.5,112.6z"/>
	</g>
	<g>
		<path class="st7" d="M578.4,330.4c0,0,0.1,0,0.4,0c0.3,0,0.6,0,1,0c1,0,2.3,0,4,0c1.7,0,3.9-0.1,6.3-0.7c2.4-0.7,5-1.9,7.3-3.9
			c2.3-2,4.5-4.8,5.7-8.2c0.3-0.8,0.5-1.8,0.8-2.7c0.1-0.9,0.3-1.9,0.3-2.8c0.1-1.9,0-4,0-6c0-8.3,0-17.4,0-26.9c0-2.4,0-4.7,0-7.1
			c0-1.2,0-2.3-0.1-3.4c-0.1-1.1-0.4-2.2-0.8-3.2c-1.5-4.2-4.7-7.5-8.5-9c-3.8-1.7-7.8-1.1-11.5-1.3c-3.7,0-7.1-0.1-10.2-0.1
			c-6.2-0.1-11.3-0.1-14.8-0.2c-1.7,0-3.1-0.1-4-0.1c-0.4,0-0.8,0-1,0c-0.2,0-0.4,0-0.4,0c0,0,0.1,0,0.4,0c0.3,0,0.6,0,1,0
			c1,0,2.3,0,4,0c3.5,0,8.6,0,14.8,0c3.1,0,6.6,0,10.2,0c1.8,0,3.7,0,5.7,0c2,0,4,0.4,6,1.2c3.9,1.6,7.2,5,8.8,9.3
			c0.4,1.1,0.6,2.2,0.8,3.4c0.1,1.2,0.1,2.3,0.1,3.5c0,2.3,0,4.7,0,7.1c0,9.5,0,18.6,0,26.9c0,2.1,0,4.1-0.1,6c0,1-0.2,2-0.4,2.9
			c-0.2,0.9-0.4,1.9-0.8,2.7c-1.2,3.5-3.5,6.3-5.9,8.3c-2.4,2-5.1,3.2-7.5,3.9c-2.4,0.7-4.6,0.7-6.3,0.7c-1.7,0-3.1,0-4,0
			c-0.4,0-0.8,0-1,0C578.5,330.4,578.4,330.4,578.4,330.4z"/>
	</g>
	<polygon class="st13" points="316.7,112.3 316.7,98.1 309.6,98.1 320.3,83 331,98 324,98 324,112.3 	"/>
	<g>
		<path class="st15" d="M475.1,112.6c3.3-7.7,1.3-15.7-4.1-22c-5.4-6.4-14.5-9.3-22.6-7.3c-1.4-8.1-7.1-15.3-14.5-18.6
			c-7.5-3.4-16.6-2.8-23.6,1.5c-7,4.3-11.6,12.2-12,20.3c-5.5,0.9-10.6,4.5-13.4,9.4c-2.8,4.9-3.2,11.1-1.1,16.3L475.1,112.6z"/>
	</g>
	<g>
		<path class="st15" d="M579.6,112.6c3.3-7.7,1.3-15.7-4.1-22c-5.4-6.4-14.5-9.3-22.6-7.3c-1.4-8.1-7.1-15.3-14.5-18.6
			c-7.5-3.4-16.6-2.8-23.6,1.5c-7,4.3-11.6,12.2-12,20.3c-5.6,0.9-10.6,4.5-13.4,9.4c-2.8,4.9-3.2,11.1-1.1,16.3L579.6,112.6z"/>
	</g>
	<polygon class="st13" points="422.5,112.3 422.5,98.1 415.4,98.1 426.1,83 436.8,98 429.8,98 429.8,112.3 	"/>
	<polygon class="st13" points="529.7,112.3 529.7,98.1 522.6,98.1 533.3,83 544,98 537,98 537,112.3 	"/>
</g>
<g id="Character">
	<g>
		<g>
			<polygon class="st1" points="554.8,317.8 563.4,329.1 579.9,321.8 569.4,304.9 			"/>
			<polygon class="st16" points="559.9,319.2 560.2,324.8 565.6,327.3 565.3,321.6 			"/>
			<polygon class="st17" points="565.1,316 565.3,321.6 570.8,324.2 570.5,318.4 			"/>
			<polygon class="st16" points="570.3,312.9 570.6,318.5 576.1,321 575.8,315.3 			"/>
			<g>
				<g>
					<g>
						<g>
							<g>
								<g>
									<g>
										<path class="st18" d="M580.6,321.6l-1.9-2.9L562.5,329l3.8,6.4l1.1-0.5c4.7-2.4,23.7-12.5,26.3-15.2
											C596.5,316.6,580.6,321.6,580.6,321.6z"/>
									</g>
								</g>
							</g>
							<g class="st19">
								<g>
									<g>
										<path class="st13" d="M572.2,331.8c-1-1.2-2.5-2.2-4.1-2.5c-1.6-0.2-2.9-0.1-4.7,1.2l2.8,4.6L572.2,331.8z"/>
									</g>
								</g>
							</g>
						</g>
						<g>
							<g>
								<g>
									<path class="st20" d="M588.5,319.4c0,0,5.7-1.4,5.6-0.3c-0.1,1.2-19,12.1-27.7,16.2l-0.2-0.4l22.1-12.6
										C588.3,322.4,587.5,320,588.5,319.4z"/>
								</g>
							</g>
						</g>
						<g>
							<g>
								<g>
									<g>
										<path class="st7" d="M565.9,335.1c0,0,0.1,0,0.3-0.1c0.3-0.1,0.5-0.3,0.8-0.4c0.8-0.4,1.9-1,3.1-1.6
											c2.6-1.4,6.1-3.3,10-5.6c3.9-2.2,7.3-4.4,9.8-5.9c1.2-0.7,2.1-1.4,2.9-1.9c0.3-0.2,0.6-0.4,0.8-0.5
											c0.2-0.1,0.3-0.2,0.3-0.2c0,0-0.1,0-0.3,0.2c-0.2,0.1-0.5,0.3-0.8,0.5c-0.8,0.5-1.8,1.1-3,1.8c-2.5,1.5-6,3.6-9.9,5.9
											c-3.9,2.2-7.4,4.2-10,5.6c-1.2,0.7-2.2,1.2-3,1.7c-0.3,0.2-0.6,0.3-0.8,0.5C566,335,565.9,335.1,565.9,335.1z"/>
									</g>
								</g>
							</g>
						</g>
						<g>
							<g>
								<g>
									<g>
										<path class="st7" d="M588.4,322.6c0.1,0-0.3-0.8-0.3-1.8c0-1,0.4-1.7,0.4-1.7c0,0-0.6,0.7-0.6,1.7
											C587.9,321.9,588.4,322.7,588.4,322.6z"/>
									</g>
								</g>
							</g>
						</g>
						<g>
							<g>
								<g>
									<g>
										
											<ellipse transform="matrix(3.940093e-02 -0.9992 0.9992 3.940093e-02 237.4025 891.072)" class="st7" cx="582.2" cy="322.1" rx="0.9" ry="0.1"/>
									</g>
								</g>
							</g>
						</g>
						<g>
							<g>
								<g>
									<g>
										
											<ellipse transform="matrix(0.3073 -0.9516 0.9516 0.3073 95.4727 775.7214)" class="st7" cx="580.6" cy="322.3" rx="0.8" ry="0.1"/>
									</g>
								</g>
							</g>
						</g>
						<g>
							<g>
								<g>
									<g>
										
											<ellipse transform="matrix(0.8704 -0.4924 0.4924 0.8704 -83.1874 327.0456)" class="st7" cx="579.5" cy="321.5" rx="1" ry="0.1"/>
									</g>
								</g>
							</g>
						</g>
						<g>
							<g>
								<g>
									<g>
										<path class="st7" d="M577.7,321.1c0,0.1,0.5,0,1.1-0.3c0.6-0.3,1-0.7,0.9-0.7c0-0.1-0.5,0.2-1,0.5
											C578.1,320.9,577.6,321,577.7,321.1z"/>
									</g>
								</g>
							</g>
						</g>
						<g>
							<g>
								<g>
									<g>
										<path class="st7" d="M581.8,321.2c0,0,0.4-0.2,1.1-0.6c0.3-0.2,0.6-0.5,1-0.9c0.2-0.2,0.3-0.4,0.5-0.6
											c0.1-0.1,0.1-0.3,0.1-0.5c0-0.2-0.2-0.3-0.4-0.3c-1.3,0.1-2,1.2-2.1,2c-0.1,0.4,0,0.7,0.1,0.9c0.1,0.2,0.1,0.3,0.1,0.3
											c0,0-0.2-0.5,0-1.2c0.1-0.4,0.2-0.8,0.6-1.1c0.3-0.3,0.8-0.7,1.3-0.6c0.2,0,0.3,0.3,0.2,0.5c-0.1,0.2-0.3,0.4-0.4,0.6
											c-0.3,0.4-0.6,0.7-0.9,0.9C582.2,321,581.8,321.2,581.8,321.2z"/>
									</g>
								</g>
							</g>
						</g>
						<g>
							<g>
								<g>
									<g>
										<path class="st7" d="M582.1,321.1c0,0,0-0.4-0.3-0.8c-0.2-0.2-0.4-0.4-0.7-0.6c-0.3-0.1-0.8-0.3-1.2,0
											c-0.2,0.2-0.2,0.5,0,0.7c0.1,0.2,0.3,0.3,0.5,0.4c0.3,0.2,0.6,0.3,0.9,0.4c0.5,0.1,0.9,0.1,0.9,0.1c0,0-0.3-0.1-0.8-0.2
											c-0.2-0.1-0.5-0.2-0.8-0.4c-0.3-0.1-0.6-0.5-0.4-0.7c0.3-0.2,0.7-0.1,1,0c0.3,0.1,0.5,0.3,0.7,0.5
											C582,320.8,582.1,321.1,582.1,321.1z"/>
									</g>
								</g>
							</g>
						</g>
						<g>
							<g>
								<g>
									<g>
										<path class="st7" d="M563.6,330.4c0,0,0.4-0.3,1.2-0.7c0.8-0.3,2-0.6,3.3-0.4c1.3,0.2,2.4,0.8,3,1.4c0.7,0.6,1,1,1,1
											c0,0-0.1-0.1-0.2-0.3c-0.1-0.2-0.4-0.5-0.7-0.8c-0.6-0.6-1.7-1.3-3.1-1.5c-1.4-0.2-2.6,0.1-3.4,0.5
											c-0.4,0.2-0.7,0.4-0.9,0.6C563.7,330.3,563.6,330.4,563.6,330.4z"/>
									</g>
								</g>
							</g>
						</g>
						<g>
							<g>
								<g>
									<g>
										<path class="st7" d="M573.4,328.9c0,0.1,1.2-0.4,2.6-1.2c1.4-0.8,2.3-1.5,2.3-1.6c0-0.1-1.1,0.6-2.4,1.4
											C574.5,328.3,573.4,328.9,573.4,328.9z"/>
									</g>
								</g>
							</g>
						</g>
						<g>
							<g>
								<g>
									<g>
										<path class="st7" d="M570.2,330.8c0,0.1,0.2,0.2,0.5,0.4c0.3,0.2,0.4,0.4,0.5,0.3c0.1,0-0.1-0.3-0.4-0.5
											C570.5,330.8,570.2,330.7,570.2,330.8z"/>
									</g>
								</g>
							</g>
						</g>
						<g>
							<g>
								<g>
									<g>
										
											<ellipse transform="matrix(0.2637 -0.9646 0.9646 0.2637 100.184 791.4967)" class="st7" cx="568.6" cy="330.1" rx="0.1" ry="0.5"/>
									</g>
								</g>
							</g>
						</g>
						<g>
							<g>
								<g>
									<g>
										<path class="st7" d="M565.9,330.3c0,0,0.3-0.1,0.6-0.1c0.3-0.1,0.5,0,0.6-0.1c0-0.1-0.2-0.2-0.6-0.1
											C566,330,565.9,330.3,565.9,330.3z"/>
									</g>
								</g>
							</g>
						</g>
						<g>
							<g>
								<g>
									<g>
										
											<ellipse transform="matrix(0.9876 -0.1572 0.1572 0.9876 -44.9569 92.8868)" class="st7" cx="564.8" cy="330.7" rx="0.3" ry="0.1"/>
									</g>
								</g>
							</g>
						</g>
					</g>
				</g>
			</g>
		</g>
		<g>
			<path class="st7" d="M445.2,309.4l64.6-60.9c4-4.1,9.5-6.4,15.2-6.4l0,0c7.6,0,14.7,4.1,18.4,10.7l33,56.8l-21,12.1l-31.8-40.5
				L491.8,310L445.2,309.4z"/>
			<path class="st7" d="M426.2,312.5c-0.3,0.8-2.2,21.6,25.7,21.6h74.6c9.4,0,17.1-7.7,17.1-17.1l0,0c0-9.4-7.7-17.1-17.1-17.1
				h-69.5c-2.5,0-4.9,0.5-7.2,1.6L426.2,312.5z"/>
			<g>
				<path class="st14" d="M533.1,299.9c0,0.2-15.4,0.3-34.4,0.3c-19,0-34.4-0.1-34.4-0.3c0-0.2,15.4-0.3,34.4-0.3
					C517.7,299.6,533.1,299.7,533.1,299.9z"/>
			</g>
			<g>
				<path class="st14" d="M521.6,267c0.2,0,0.2,3.2,0.8,7.1c0.6,3.9,1.5,7,1.3,7.1c-0.1,0.1-1.3-3-1.9-7
					C521.2,270.3,521.5,267,521.6,267z"/>
			</g>
			<g>
				<path class="st14" d="M524.8,266.5c0.2,0,0.3,3.3,0,7.3c-0.3,4.1-1.1,7.3-1.2,7.2c-0.2,0,0.3-3.3,0.6-7.3
					C524.5,269.8,524.6,266.5,524.8,266.5z"/>
			</g>
		</g>
		<g>
			<g>
				<g>
					<g>
						<path class="st7" d="M466.9,174.9c0.1,0.8-0.4,1.7-1.1,2.1c-0.7,0.4-1.7,0.3-2.4-0.2c-1.3-1-1.1-3-0.5-4.5
							c0.6-1.5,1.4-3.1,1.1-4.6c-0.3-1.2-1.2-2.1-1.9-3.1c-1.2-1.8-1.5-4.2-0.8-6.2c0.8-2,2.7-3.6,4.8-3.7c2.2-0.2,4.6,1,6.5-0.2
							c1.3-0.9,1.7-2.6,2.9-3.8c1.7-1.8,4.6-1.5,7-0.7s4.6,2,7.1,1.9c2.1-0.1,3.9-1.2,5.9-1.6c4.3-1,9.3,0.9,11.7,4.7
							c2.4,3.8,2.1,9.1-0.7,12.6c-1,1.3-3.3,5-7.8,4.1"/>
					</g>
					<g>
						<g>
							<g>
								<g>
									<path class="st21" d="M469.5,157.9l-0.6,3.2l-9.4,48.4c-1.1,5.6,2.9,11,8.9,12.1l0,0c6.1,1.1,12-2.5,13.2-8.2
										c1.3-5.9,2.7-12.2,2.7-12.2s7.9,0.3,11.6-9.3c1.8-4.8,3.3-13,4.2-19.7c0.9-6.1-3.5-11.6-9.6-12.2L469.5,157.9z"/>
								</g>
								<g>
									<g>
										<path class="st7" d="M495.5,177.1c-0.1,0.7-0.8,1.1-1.5,1c-0.7-0.1-1.2-0.7-1.1-1.4c0.1-0.7,0.8-1.1,1.5-1
											S495.6,176.4,495.5,177.1z"/>
									</g>
									<g>
										<g>
											<path class="st7" d="M497.4,176.1c-0.2,0.1-1-0.8-2.4-1.1c-1.4-0.3-2.5,0.2-2.6,0c-0.1-0.1,0.2-0.4,0.7-0.6
												c0.5-0.2,1.3-0.4,2.2-0.2c0.9,0.2,1.5,0.6,1.9,1.1C497.4,175.7,497.5,176.1,497.4,176.1z"/>
										</g>
									</g>
								</g>
								<g>
									<g>
										<path class="st7" d="M482.3,174.4c-0.1,0.7-0.8,1.1-1.5,1c-0.7-0.1-1.2-0.7-1.1-1.4c0.1-0.7,0.8-1.1,1.5-1
											C482,173.1,482.5,173.7,482.3,174.4z"/>
									</g>
									<g>
										<g>
											<path class="st7" d="M483.8,173.6c-0.2,0.1-1-0.8-2.4-1.1c-1.4-0.3-2.5,0.2-2.6,0c-0.1-0.1,0.2-0.4,0.7-0.6
												c0.5-0.2,1.3-0.4,2.2-0.2c0.9,0.2,1.5,0.6,1.9,1.1C483.8,173.2,483.9,173.5,483.8,173.6z"/>
										</g>
									</g>
								</g>
								<g>
									<g>
										<path class="st7" d="M486.7,184.8c0-0.1,0.9-0.1,2.3,0.1c0.4,0,0.7,0,0.8-0.2c0.1-0.2,0.1-0.6,0-1.1
											c-0.2-0.9-0.3-1.9-0.5-2.9c-0.7-4.1-1-7.5-0.9-7.5c0.2,0,0.8,3.3,1.5,7.4c0.2,1,0.3,2,0.4,2.9c0.1,0.4,0.2,0.9-0.1,1.4
											c-0.1,0.2-0.4,0.4-0.7,0.4c-0.2,0-0.4,0-0.6,0C487.5,185.1,486.7,184.9,486.7,184.8z"/>
									</g>
								</g>
								<g>
									<path class="st22" d="M484.3,201.3c0,0-6.8-1-12.6-6.3c0,0,1.8,7.5,12,8.7L484.3,201.3z"/>
								</g>
								<g>
									<g>
										<path class="st7" d="M482,185.3c0.2,0,0.2,1.5,1.5,2.6c1.3,1.1,2.9,1,2.9,1.2c0,0.1-0.4,0.3-1.1,0.3
											c-0.7,0-1.7-0.2-2.4-0.9c-0.8-0.7-1.1-1.6-1.1-2.2C481.7,185.6,481.9,185.3,482,185.3z"/>
									</g>
								</g>
							</g>
						</g>
					</g>
					<g>
						<path class="st7" d="M485.3,168.2c-0.2,0.3-1.6-0.1-3.2-0.3c-1.7-0.2-3.1,0-3.2-0.4c-0.1-0.2,0.2-0.5,0.8-0.7
							c0.6-0.3,1.5-0.4,2.5-0.3c1,0.1,1.9,0.4,2.4,0.8C485.1,167.7,485.4,168.1,485.3,168.2z"/>
					</g>
					<g>
						<path class="st7" d="M497.7,172c-0.3,0.3-1.2-0.3-2.3-0.5c-1.1-0.3-2.2-0.2-2.3-0.6c-0.1-0.2,0.2-0.5,0.6-0.7
							c0.5-0.2,1.2-0.3,2-0.1s1.4,0.6,1.7,1C497.8,171.6,497.9,171.9,497.7,172z"/>
					</g>
					<g>
						<path class="st7" d="M501.3,167.9c0,0-5.7,1.6-11.8-3c-4.1-3-9.1-5-10.4-4.3s-2.3,5.2-7,5.8c0,0-1.2,8.8-4.7,7.9
							c-3.4-0.9,0.7-18.2,0.7-18.2l9.7,1.5l9.6-0.1l8.6,2.8l6.5,3L501.3,167.9z"/>
					</g>
					<g>
						<g>
							<path class="st7" d="M468.4,153.6c0-0.1,0.9-0.3,1.7,0.3c0.9,0.5,1.2,1.4,1,1.4c-0.1,0.1-0.6-0.5-1.3-1
								C469.2,153.8,468.4,153.7,468.4,153.6z"/>
						</g>
					</g>
					<g>
						<g>
							<path class="st7" d="M471.9,151.2c0.2,0-0.1,1.1-0.2,2.3c-0.1,1.2,0.3,2.2,0.1,2.2c-0.1,0.1-0.7-0.9-0.7-2.3
								C471.3,152.1,471.8,151.2,471.9,151.2z"/>
						</g>
					</g>
				</g>
				<g>
					<g>
						<g>
							<path class="st21" d="M468.4,170.8c-0.1-0.1-5.4-3.2-6.6,2.6s4.8,5.9,4.9,5.7C466.7,179,468.4,170.8,468.4,170.8z"/>
						</g>
					</g>
					<g>
						<g>
							<g>
								<path class="st22" d="M465.3,176.6c0,0-0.1,0-0.3,0.1c-0.2,0-0.5,0-0.8-0.1c-0.6-0.4-0.9-1.4-0.7-2.5c0.1-0.5,0.3-1,0.6-1.4
									c0.3-0.4,0.6-0.6,0.9-0.6c0.3,0,0.5,0.2,0.5,0.4c0,0.2,0,0.3,0,0.3c0,0,0.1-0.1,0.2-0.3c0-0.1,0-0.3-0.1-0.4
									c-0.1-0.1-0.3-0.2-0.5-0.3c-0.5-0.1-0.9,0.3-1.3,0.7c-0.3,0.4-0.6,0.9-0.7,1.5c-0.2,1.2,0.1,2.4,0.9,2.8
									c0.4,0.2,0.8,0.1,1,0C465.3,176.7,465.4,176.6,465.3,176.6z"/>
							</g>
						</g>
					</g>
				</g>
			</g>
			<g>
				<g>
					<path class="st14" d="M487,174c-0.1,0,0-0.5-0.3-1.4c-0.2-0.9-0.9-2.2-2.2-3.2c-1.3-1-3.4-1.5-5.4-0.8c-2,0.7-3.8,2.9-3.7,5.4
						c0,2.5,1.7,4.7,3.7,5.4c2,0.8,4.2,0.2,5.4-0.8c1.3-1,1.9-2.3,2.2-3.2C487,174.5,487,174,487,174c0,0,0,0.1,0,0.4
						c0,0.3,0,0.6-0.1,1.1c-0.2,0.9-0.8,2.3-2.2,3.4c-1.3,1.1-3.6,1.8-5.9,0.9c-1.1-0.4-2.2-1.1-2.9-2.2c-0.8-1-1.2-2.3-1.2-3.7
						c0-1.4,0.5-2.7,1.2-3.7c0.8-1,1.8-1.8,2.9-2.2c2.2-0.8,4.5-0.2,5.9,1c1.4,1.1,2,2.5,2.2,3.4c0.1,0.5,0.1,0.9,0.1,1.1
						C487.1,173.8,487.1,174,487,174z"/>
				</g>
				<g>
					<path class="st14" d="M501.4,176.6c-0.1,0,0-0.5-0.3-1.4c-0.2-0.9-0.9-2.2-2.2-3.2c-1.3-1-3.4-1.5-5.4-0.8
						c-2,0.7-3.8,2.9-3.7,5.4c0,2.5,1.7,4.7,3.7,5.4c2,0.8,4.2,0.2,5.4-0.8c1.3-1,1.9-2.3,2.2-3.2
						C501.3,177.1,501.3,176.6,501.4,176.6c0,0,0,0.1,0,0.4c0,0.3,0,0.6-0.1,1.1c-0.2,0.9-0.8,2.3-2.2,3.4c-1.3,1.1-3.6,1.8-5.9,0.9
						c-1.1-0.4-2.2-1.1-2.9-2.2c-0.8-1-1.2-2.3-1.2-3.7c0-1.4,0.5-2.7,1.2-3.7c0.8-1,1.8-1.8,2.9-2.2c2.2-0.8,4.5-0.2,5.9,1
						c1.4,1.1,2,2.5,2.2,3.4c0.1,0.5,0.1,0.9,0.1,1.1C501.4,176.4,501.4,176.6,501.4,176.6z"/>
				</g>
				<g>
					
						<ellipse transform="matrix(1 -3.199984e-03 3.199984e-03 1 -0.5437 1.5118)" class="st14" cx="472.2" cy="170.7" rx="3.6" ry="0.3"/>
				</g>
			</g>
			<g>
				<path class="st14" d="M490.1,175.7c-0.2,0.1-0.5-0.5-1.2-0.7c-0.7-0.2-1.3,0.1-1.4-0.1c0-0.1,0.1-0.2,0.3-0.4
					c0.3-0.2,0.7-0.3,1.2-0.1c0.5,0.1,0.8,0.5,1,0.7C490.2,175.4,490.2,175.7,490.1,175.7z"/>
			</g>
		</g>
		<polygon class="st1" points="476.5,299.4 476.5,295.6 531,296.7 562.4,246.5 565.3,248.6 533.1,299.9 		"/>
		<path class="st21" d="M514.2,282.7l2.7,4.1v8.4c0,0-1.4,0.3-2-0.8c-0.6-1.1-1.3-5-1.3-5l-1.3,3.4c-0.5,1.4-2,2.2-3.5,1.8
			l-10.1-2.5l4.1-11.8L514.2,282.7z"/>
		<g>
			<path class="st23" d="M458.3,201.7c0,0-15.1,3.8-19.6,10.6c-4.5,6.8-9.7,18.1-15.2,39.9c-4.9,19.1-8.6,49.6-3.3,56.7
				c3.6,4.9,5.9,6.2,5.9,6.2l11.7-4.2c11.2-4,21.5-10.2,30.3-18.3l17.9-16.3l-9.5-7.5c0,0,7.2-38.9,5.3-52.5
				C480.1,204.6,458.3,201.7,458.3,201.7z"/>
			<path class="st23" d="M462.2,213.4c-5.8,1.4-11.4,3.8-19.3,4.5c-1.9,0.2-3.8-0.2-5.4-1.2c-5-3.1-3.3-8.8-0.5-12.7
				c2.9-4.1,7.5-7.6,12.5-7.1c-1-2.5,0.5-5.4,2.9-6.7s5.2-1.1,7.7-0.2c2.5,0.9,4.6,2.6,6.8,4.2c2.8,2.1,5.7,4.3,8.5,6.4
				c1.9,1.4,3.9,3,5,5.1c1.1,2.1,5.2,10.5,3.4,12.1c0,0-2.3,0.7-3.4,0c-0.1,0-0.1-0.1-0.2-0.1C475,213.7,468.5,211.9,462.2,213.4z"
				/>
			<path class="st23" d="M453.7,220.5l-10,46.7c-1.7,8.2,2.8,16.3,10.6,19.2l43.4,8.3l5.4-16.2l0,0l-35.2-11l10.3-45.1L453.7,220.5z
				"/>
			<g>
				<path class="st7" d="M443.3,276.1c0,0,0,0.1,0.1,0.3c0,0.2,0.1,0.5,0.2,0.8c0,0.2,0.1,0.4,0.1,0.6c0.1,0.2,0.2,0.4,0.3,0.7
					c0.1,0.3,0.2,0.5,0.3,0.8c0.1,0.3,0.3,0.6,0.5,0.9c0.7,1.2,1.8,2.6,3.5,3.7c1.7,1.1,3.8,2.1,6.4,2.8c10.4,1.9,25.2,4.6,42.9,7.9
					l-0.3,0.2c1.8-5.1,3.7-10.5,5.6-16.2l0.2,0.4c-10.9-3.4-22.8-7.1-35.2-11l-0.3-0.1l0.1-0.3c0.6-2.4,1.3-5,1.9-7.6
					c2-8.2,4-16.2,5.6-23.9c0.8-3.9,1.6-7.7,2.1-11.5c0.2-0.9,0.2-1.9,0.2-2.8c0-0.9-0.1-1.8-0.3-2.7c-0.4-1.8-1.3-3.4-2.4-4.8
					c-2.3-2.8-5.8-4.2-9.2-4.1c-3.4,0.1-6.5,1.9-8.5,4.3c-2.1,2.4-3.5,5.3-4.4,8.1c-0.9,2.9-1.5,5.7-2,8.4
					c-2.1,10.8-3.9,19.6-5.1,25.7c-0.6,3-1.1,5.4-1.4,7c-0.2,0.8-0.3,1.4-0.4,1.8c-0.1,0.4-0.1,0.6-0.1,0.6s0-0.2,0.1-0.6
					c0.1-0.4,0.2-1,0.3-1.8c0.3-1.6,0.7-4,1.3-7c1.2-6.1,2.8-14.9,4.9-25.7c0.5-2.7,1-5.6,2-8.5c0.9-2.9,2.3-5.8,4.5-8.3
					c2.1-2.5,5.3-4.4,8.9-4.5c3.5-0.1,7.2,1.4,9.6,4.3c1.2,1.4,2.1,3.1,2.5,5c0.2,0.9,0.3,1.9,0.3,2.9c-0.1,1-0.1,1.9-0.2,2.9
					c-0.5,3.8-1.3,7.6-2.1,11.5c-1.7,7.8-3.6,15.8-5.6,24c-0.7,2.6-1.3,5.2-1.9,7.6l-0.2-0.4c12.4,3.9,24.3,7.6,35.2,11l0.3,0.1
					l-0.1,0.3c-2,5.6-3.9,11-5.7,16.2l-0.1,0.2l-0.2,0c-17.8-3.3-32.5-6-42.9-8.1c-2.6-0.7-4.7-1.7-6.4-2.9
					c-1.7-1.2-2.8-2.6-3.5-3.8c-0.2-0.3-0.3-0.6-0.5-0.9c-0.1-0.3-0.2-0.6-0.3-0.8c-0.1-0.3-0.2-0.5-0.2-0.7c0-0.2-0.1-0.4-0.1-0.6
					c-0.1-0.3-0.1-0.6-0.1-0.8C443.3,276.2,443.3,276.1,443.3,276.1z"/>
			</g>
			<g>
				<path class="st7" d="M461.8,273.7c-0.1,0-0.1-0.5,0.1-1.4c0.2-0.8,0.8-2,1.7-2.9c1-0.9,2.1-1.4,3-1.6c0.9-0.2,1.4-0.1,1.4,0
					c0,0.1-0.5,0.2-1.3,0.4c-0.8,0.3-1.8,0.8-2.7,1.7c-0.9,0.9-1.5,1.8-1.8,2.6C462,273.2,461.9,273.7,461.8,273.7z"/>
			</g>
			<g class="st24">
				<path d="M452.6,219.9c-5.2,16.2-8.4,33-10.4,49.8c-0.5,3.9-0.9,7.9-0.2,11.7c0.7,3.9,2.6,7.7,5.9,9.8c3.1,2,7,2.3,10.6,1.6
					c3.6-0.7,9.4-1.5,12.7-3l-19.4-4c0,0-12.5-0.8-7.1-24.7C450,237.1,452.6,219.9,452.6,219.9z"/>
			</g>
			<g class="st24">
				<path d="M436.1,215.9c-0.1,1.9,0.1,4.3,1.8,5.1c1.8,0.8,3.7-0.7,5.2-2c5.9-5.4,12.6-10,19.7-13.5c-9.8,0.6-19.3,4.5-26.7,10.8"
					/>
			</g>
			<g>
				<path class="st7" d="M474.1,210.1c-0.1,0.1-1.9-1.5-5.4-2.9c-1.7-0.7-3.9-1.3-6.4-1.4c-2.5-0.2-5.2,0-7.9,0.9
					c-2.7,0.8-5.2,2.1-7.4,3.2c-2.2,1.2-4.1,2.3-5.8,3.2c-1.7,0.9-3.1,1.5-4.1,1.9c-1,0.4-1.5,0.6-1.6,0.5c0,0,0.5-0.3,1.5-0.7
					c0.9-0.5,2.3-1.1,3.9-2.1c1.7-1,3.6-2.1,5.7-3.3c2.2-1.2,4.7-2.5,7.5-3.3c2.8-0.9,5.6-1.1,8.1-0.8c2.5,0.2,4.7,0.9,6.5,1.6
					c1.8,0.7,3.1,1.6,3.9,2.2c0.4,0.3,0.7,0.6,1,0.8C474,210,474.1,210.1,474.1,210.1z"/>
			</g>
			<g>
				<path class="st7" d="M480.2,212.5c-0.1,0.1-1.4-1.3-3.9-3.2c-2.4-2-6-4.4-10.2-6.6c-4.3-2.1-8.4-3.5-11.4-4.2
					c-3-0.8-4.9-1-4.9-1.1c0,0,0.5,0,1.4,0.1c0.9,0.1,2.1,0.3,3.7,0.6c3.1,0.7,7.3,1.9,11.6,4.1c4.3,2.1,7.8,4.7,10.2,6.8
					c1.2,1,2.1,1.9,2.7,2.5C479.9,212.1,480.2,212.5,480.2,212.5z"/>
			</g>
			<g>
				<path class="st1" d="M483.1,250.3c0,0-0.1-0.3-0.2-1c-0.1-0.6-0.3-1.6-0.4-2.8c-0.1-1.2-0.2-2.6,0.2-4.3
					c0.2-0.8,0.8-1.8,1.9-1.9c0.5-0.1,1.2,0.1,1.5,0.6c0.3,0.4,0.4,1.2-0.1,1.7l-0.1,0.1l-0.1,0c-0.6,0.1-1.3-0.2-1.6-0.6
					c-0.4-0.5-0.6-1.1-0.7-1.6c-0.1-1.1-0.1-2.3-0.2-3.4c-0.3-5.5-0.5-10.5-0.6-14.1c-0.1-1.7-0.1-3.2-0.1-4.3c0-1,0-1.6,0-1.6
					c0,0,0.1,0.6,0.2,1.6c0.1,1.1,0.2,2.6,0.3,4.3c0.2,3.6,0.5,8.6,0.8,14.1c0.1,1.1,0.1,2.3,0.2,3.4c0.1,0.5,0.2,1,0.5,1.3
					c0.3,0.3,0.7,0.5,1.1,0.5l-0.1,0.1c0.2-0.2,0.2-0.7,0-1c-0.2-0.3-0.6-0.4-0.9-0.4c-0.8,0.1-1.3,0.8-1.5,1.5
					c-0.4,1.5-0.3,3-0.3,4.1C483,248.9,483.2,250.2,483.1,250.3z"/>
			</g>
			<g>
				<path class="st7" d="M464.2,288.2c0,0-0.5,0.5-1.4,1.3c-0.9,0.8-2.3,2-4,3.4c-3.5,2.8-8.5,6.3-14.3,9.8
					c-5.8,3.4-11.4,6-15.5,7.7c-2.1,0.8-3.7,1.5-4.9,1.9c-1.2,0.4-1.8,0.6-1.8,0.6c0,0,0.6-0.3,1.8-0.8c1.1-0.5,2.8-1.1,4.8-2
					c4.1-1.8,9.6-4.4,15.4-7.8c5.8-3.4,10.8-6.9,14.3-9.6c1.8-1.3,3.2-2.4,4.1-3.2C463.6,288.6,464.2,288.2,464.2,288.2z"/>
			</g>
			<g>
				
					<ellipse transform="matrix(0.799 -0.6013 0.6013 0.799 -101.9676 320.1586)" class="st7" cx="427.9" cy="312.6" rx="0.3" ry="2.2"/>
			</g>
			<g>
				<path class="st7" d="M436.2,311.4c-0.1,0.1-1-0.4-1.9-1.4c-0.9-1-1.3-2-1.2-2.1c0.1-0.1,0.8,0.7,1.6,1.6
					C435.5,310.6,436.3,311.3,436.2,311.4z"/>
			</g>
			<g>
				
					<ellipse transform="matrix(0.7497 -0.6617 0.6617 0.7497 -91.8592 369.7753)" class="st7" cx="442.9" cy="306.3" rx="0.3" ry="2.9"/>
			</g>
			<g>
				
					<ellipse transform="matrix(0.7704 -0.6375 0.6375 0.7704 -88.1344 357.3764)" class="st7" cx="452.2" cy="301.1" rx="0.3" ry="3.2"/>
			</g>
			<g>
				
					<ellipse transform="matrix(0.6708 -0.7417 0.7417 0.6708 -67.1839 438.8002)" class="st7" cx="460.7" cy="295.1" rx="0.3" ry="3"/>
			</g>
		</g>
	</g>
	<path class="st25" d="M459.7,263c-0.5,1.7-0.3,3.6-0.3,5.4c0,1.7-0.1,3.8,0.6,5.4c0.6,1.5,1.3,1.2,2.8,0.6c3.1-1.3,1.4-4.6,0.1-6.7
		c-0.6,2.5-1.3,4.9-1.9,7.3c-0.4,1.5-0.6,3.8-2.4,4c-1.3,0.1-2.5-0.7-3.3-1.5c-3-3.1-2.8-8.2-2-12.1c1.5-7.3,4.2-13.8,8.6-19.8
		c2.2-3.1,5.2-6.6,9-7.6"/>
</g>
<g id="Wifi">
	<g>
		<g>
			<g>
				<circle class="st15" cx="550.1" cy="196.8" r="2.3"/>
				<g>
					<path class="st15" d="M545.5,193.8c2.5-2.7,6.7-2.8,9.3-0.1c1.2,1.2,3-0.6,1.9-1.8c-3.6-3.6-9.5-3.6-13,0.1
						C542.5,193.2,544.3,195.1,545.5,193.8L545.5,193.8z"/>
				</g>
				<g>
					<path class="st15" d="M537.6,183c3.5-3.1,7.7-5,12.5-5c4.7,0,9.3,1.6,12.7,4.9c1.2,1.1,3.1-0.7,1.9-1.8
						c-3.9-3.7-9.2-5.7-14.6-5.6c-5.4,0-10.3,2.2-14.3,5.7C534.5,182.3,536.3,184.1,537.6,183L537.6,183z"/>
				</g>
				<g>
					<path class="st15" d="M540.7,189c2.4-2.6,5.7-4.2,9.2-4.2c3.6-0.1,7.1,1.4,9.6,4c1.2,1.2,3-0.6,1.9-1.8c-3-3-7.2-4.8-11.4-4.7
						c-4.2,0.1-8.2,1.9-11,5C537.7,188.4,539.5,190.3,540.7,189L540.7,189z"/>
				</g>
			</g>
		</g>
	</g>
</g>
</svg>
